<?xml version="1.0" encoding="utf-8"?>
<!-- Generator: Adobe Illustrator 21.0.0, SVG Export Plug-In . SVG Version: 6.00 Build 0)  -->
<svg version="1.1" id="OBJECTS" xmlns="http://www.w3.org/2000/svg" xmlns:xlink="http://www.w3.org/1999/xlink" x="0px" y="0px"
	 viewBox="0 0 500 500" style="enable-background:new 0 0 500 500;" xml:space="preserve">
<style type="text/css">
	.st0{fill:#22F85A;}
	.st1{fill:none;stroke:#22F85A;stroke-width:4;stroke-miterlimit:10;}
	.st2{fill:none;stroke:#22F85A;stroke-width:3;stroke-miterlimit:10;}
	.st3{fill:#ACCCAE;}
	.st4{fill:#183E54;}
	.st5{fill:#38696D;}
	.st6{fill:#48878C;}
	.st7{fill:#CCCCCC;}
	.st8{fill:#F4F4F4;}
	.st9{fill:#183E54;stroke:#215670;stroke-width:2;stroke-miterlimit:10;}
	.st10{fill:none;stroke:#183E54;stroke-linecap:round;stroke-linejoin:round;stroke-miterlimit:10;stroke-dasharray:0,2;}
	.st11{fill:#B2B194;}
	.st12{fill:#545347;}
	.st13{fill:#DBDAB4;}
	.st14{fill:#FFFFD0;}
	.st15{clip-path:url(#SVGID_2_);}
	.st16{fill:#F2F2F2;}
	.st17{fill:#B3B3B3;}
	.st18{opacity:0.59;fill:#22F85A;}
	.st19{fill:#FFFFFF;}
</style>
<g>
	<g>
		<g>
			<path class="st0" d="M360.2,419.8c0.3,6.6-5.4,11.2-12.8,10.3s-13.4-6.9-13.5-13.4c-0.1-6.5,5.6-11.1,12.8-10.3
				C353.8,407.2,359.9,413.2,360.2,419.8z"/>
			<path class="st0" d="M379,391.4c1.1,17.6-13.7,30-33,27.7c-19.3-2.3-35-18.2-35-35.4c0-17.3,14.8-29.7,33-27.7
				C362.3,357.9,377.9,373.8,379,391.4z"/>
			<path class="st1" d="M406.7,389.8c0.5,6.4-4.5,11-11.4,10.2c-6.8-0.8-12.7-6.6-13.1-12.9c-0.4-6.4,4.7-10.9,11.4-10.2
				S406.1,383.4,406.7,389.8z"/>
			<path class="st0" d="M417.2,422.1c0.5,5.5-3.9,9.3-9.9,8.6c-6-0.7-11.1-5.7-11.5-11.2s4-9.3,9.9-8.6
				C411.6,411.6,416.7,416.6,417.2,422.1z"/>
		</g>
	</g>
	<g>
		<g>
			<path class="st0" d="M141.2,66.6c-3.9-8-12.1-14.4-21.3-15.9c-12.6-2-22.7,5.8-22.5,17.4c0.1,5.5,2.5,10.9,6.4,15.3
				c-1.8,3.8-2.7,8-2.6,12.7c0,1,0.1,2,0.2,3c-1.1-0.4-2.3-0.7-3.5-0.9C87.9,96.5,80,102.7,80,112c0,9.3,8.1,18.2,18.1,20
				c7.5,1.3,13.8-1.9,16.4-7.5c7.7,7.5,18.1,13.1,29.4,15c23.4,4.1,41.3-9.1,40.1-29.5C182.8,89.7,163.6,70.2,141.2,66.6z"/>
			<path class="st0" d="M94.2,144.1c-5.6-1-10,2.3-10,7.4s4.6,10,10.2,11c5.6,1,10.1-2.3,10-7.4C104.3,150,99.7,145.1,94.2,144.1z"
				/>
			<path class="st2" d="M80.5,47.8c-3.8-0.6-6.9,1.9-6.9,5.6s3.1,7.2,7,7.8c3.9,0.6,6.9-1.9,6.9-5.6C87.5,51.9,84.4,48.4,80.5,47.8z
				"/>
			<path class="st0" d="M163.5,77.8c0.5,8.8-6.7,14.8-16,13.2c-9.3-1.5-17.1-9.9-17.4-18.6s6.9-14.7,16-13.2
				C155.2,60.6,163,68.9,163.5,77.8z"/>
		</g>
	</g>
	<ellipse class="st3" cx="269.4" cy="439.7" rx="83.7" ry="7.7"/>
	<path class="st4" d="M349.6,391.3l-37-274c-1.6-11.7-11.2-22.5-21.4-24.1L172.6,75l1.2-3.8l-9,3.8c-1.1,0.3-2.2,0.8-3.2,1.4
		l-0.2,0.1l0,0c-5,3.1-7.8,9.6-7,17.6l29.9,287c1.3,12.3,11.1,22.7,21.9,23.2l126.7,7c3.2,0.2,6.1-0.5,8.6-1.8h0l7.3-3.1l-0.9-3.7
		C349.5,399.5,350.1,395.6,349.6,391.3z"/>
	<g>
		<path class="st5" d="M341.7,407.6l-126.7-7c-10.8-0.6-20.6-11-21.9-23.2l-29.9-287c-1.3-12.3,6-21,16.3-19.4L300,89.4
			c10.3,1.6,19.8,12.4,21.4,24.1l37,274C360,399.2,352.5,408.2,341.7,407.6z"/>
		<path class="st6" d="M192,366.2L163.3,90.4c-1.3-12.3,6-21,16.3-19.4L300,89.4c7.7,1.2,15,7.6,18.8,15.6"/>
		<path class="st7" d="M336.2,365.5L210.3,357c-6.3-0.4-12.1-6.6-12.8-13.8l-25-236.8c-0.8-7.2,3.6-12.4,9.6-11.5l121,17.6
			c6.1,0.9,11.7,7.2,12.7,14.2L346,353.8C346.9,360.7,342.6,366,336.2,365.5z"/>
		<path class="st8" d="M201.8,352.7c-2.3-2.5-4-5.9-4.3-9.5l-25-236.8c-0.8-7.2,3.6-12.4,9.6-11.5l121,17.6c3,0.4,5.9,2.2,8.2,4.7"
			/>
		<path class="st9" d="M287.6,379.9c0.9,7.5-3.8,13.2-10.5,12.8c-6.7-0.4-12.9-6.8-13.8-14.3c-0.9-7.5,3.8-13.2,10.5-12.8
			C280.5,366.1,286.7,372.5,287.6,379.9z"/>
		<path class="st9" d="M252.3,100.1l-20.6-3c-1.1-0.2-2.2-1.4-2.3-2.7l0,0c-0.2-1.3,0.6-2.3,1.8-2.1l20.6,3.1
			c1.1,0.2,2.2,1.4,2.3,2.7l0,0C254.2,99.4,253.5,100.3,252.3,100.1z"/>
	</g>
	<path class="st10" d="M147,255.1c0,0-75.2-86.5-13.4-155"/>
	<path class="st7" d="M193.4,73.1l-9,17.7H150l12.9-18.5C162.9,72.2,182.1,69.8,193.4,73.1z"/>
	<g>
		<polyline class="st11" points="141,106.9 193.4,54.1 132.7,84.9 		"/>
		<polygon class="st12" points="129.8,84.9 141,106.9 132.7,84.9 		"/>
		<polygon class="st13" points="132.6,84.2 102.9,92.1 197,50.1 		"/>
		<polyline class="st14" points="182.6,81 205.7,45.4 132.7,84.9 		"/>
		<polygon class="st12" points="196,50.6 132.7,84.9 129.8,84.9 		"/>
	</g>
	<circle class="st10" cx="132.7" cy="157.6" r="8.8"/>
	<circle class="st10" cx="78" cy="134.7" r="3.8"/>
	<circle class="st10" cx="92.1" cy="241.3" r="14.2"/>
	<circle class="st10" cx="368.7" cy="252.3" r="4.7"/>
	<circle class="st10" cx="367" cy="203.5" r="11.5"/>
	<circle class="st10" cx="328" cy="84.9" r="5.8"/>
	<g>
		<defs>
			<path id="SVGID_1_" d="M336.2,365.5L210.3,357c-6.3-0.4-12.1-6.6-12.8-13.8l-25-236.8c-0.8-7.2,3.6-12.4,9.6-11.5l121,17.6
				c6.1,0.9,11.7,7.2,12.7,14.2L346,353.8C346.9,360.7,342.6,366,336.2,365.5z"/>
		</defs>
		<clipPath id="SVGID_2_">
			<use xlink:href="#SVGID_1_"  style="overflow:visible;"/>
		</clipPath>
		<g class="st15">
			<polygon class="st16" points="319.5,232.8 194.1,221.4 182,94.7 301,106.6 			"/>
			<polygon class="st16" points="341.5,372.8 208.9,361.9 195.5,235.3 321.6,246.7 			"/>
			<path class="st0" d="M297.7,220.5l-84.2-7.7c-4.1-0.4-7.7-3.7-8.1-7.5l-0.2-1.9c-0.4-3.8,2.6-6.5,6.6-6.2l83.7,7.7
				c4,0.4,7.7,3.7,8.3,7.5l0.3,1.9C304.5,218.1,301.7,220.8,297.7,220.5z"/>
			<path class="st0" d="M305.2,272.4l-86-7.6c-4.1-0.4-7.8-3.7-8.3-7.5l-0.2-1.9c-0.4-3.8,2.6-6.5,6.7-6.2l85.5,7.6
				c4.1,0.4,7.9,3.7,8.4,7.5l0.3,1.9C312.2,270,309.3,272.7,305.2,272.4z"/>
			<path class="st17" d="M320,371l-89.4-7.4c-4.3-0.4-8.2-3.7-8.6-7.5l-9-79.4c-0.4-3.8,2.6-6.5,6.8-6.2l86.2,7.6
				c4.1,0.4,7.9,3.7,8.5,7.5l12.2,79.2C327.3,368.6,324.3,371.4,320,371z"/>
			<path class="st17" d="M294.6,198.8l-83.5-7.8c-4-0.4-7.6-3.7-8-7.5l-8.3-83.8c-0.4-3.8,2.5-6.5,6.3-6.2l80.1,8
				c3.8,0.4,7.4,3.8,7.9,7.5l11.7,83.6C301.4,196.4,298.6,199.1,294.6,198.8z"/>
		</g>
	</g>
	<g>
		<g>
			<g>
				<path class="st18" d="M355.7,231c1.1,10.4-6.6,18.7-17.1,18.4c-10.6-0.3-20-8.9-21.1-19.3c-1.1-10.4,6.6-18.7,17.1-18.4
					C345.1,211.9,354.6,220.6,355.7,231z"/>
				<path class="st0" d="M357.9,229.8c1.1,10.4-6.6,18.7-17.1,18.4c-10.6-0.3-20-8.9-21.1-19.3c-1.1-10.4,6.6-18.7,17.1-18.4
					C347.3,210.7,356.8,219.4,357.9,229.8z"/>
				<g>
					<path class="st19" d="M335.5,232.3c0.2,0.1,0.4,0.2,0.6,0.4c0.3,0.2,0.6,0.3,0.9,0.5c0.5,0.2,1,0.4,1.4,0.6
						c0.4,0.1,0.9,0.2,1.4,0.1c0.4,0,0.8-0.1,1-0.2c0.3-0.1,0.5-0.3,0.6-0.4c0.1-0.2,0.2-0.4,0.2-0.6c0-0.2,0-0.4,0-0.7
						c-0.1-0.3-0.2-0.5-0.4-0.7c-0.2-0.2-0.5-0.3-0.8-0.5c-0.3-0.1-0.6-0.2-1-0.3c-0.3-0.1-0.6-0.2-0.9-0.2c-1.1-0.3-2-0.6-2.9-0.9
						c-0.8-0.3-1.6-0.7-2.2-1.2c-0.6-0.5-1.1-1-1.5-1.5c-0.4-0.6-0.6-1.2-0.8-2c-0.1-0.6-0.2-1.2-0.1-1.8c0.1-0.6,0.3-1.1,0.6-1.5
						c0.3-0.5,0.7-0.9,1.2-1.2s1.1-0.6,1.8-0.8l-0.4-1.7c0-0.1,0-0.3,0.1-0.4s0.2-0.2,0.4-0.2l2.3-0.2c0.1,0,0.3,0,0.4,0.1
						c0.2,0.1,0.3,0.2,0.3,0.4l0.4,1.7c0.5,0,1,0.1,1.4,0.2c0.5,0.1,1,0.3,1.5,0.5c0.3,0.1,0.6,0.3,0.9,0.4c0.3,0.2,0.5,0.3,0.8,0.5
						c0.2,0.1,0.4,0.3,0.6,0.4s0.2,0.3,0.3,0.4s0,0.2,0,0.3c0,0.1-0.1,0.2-0.2,0.3l-1.5,2.2c-0.1,0.2-0.2,0.2-0.4,0.2
						c-0.1,0-0.2,0-0.3-0.1c-0.1-0.1-0.2-0.1-0.4-0.2l-0.1-0.1c-0.2-0.1-0.4-0.3-0.6-0.4c-0.2-0.1-0.5-0.2-0.7-0.3
						c-0.3-0.1-0.5-0.2-0.8-0.2c-0.3-0.1-0.5-0.1-0.8-0.1c-0.3,0-0.5,0.1-0.8,0.1c-0.2,0.1-0.4,0.2-0.6,0.3
						c-0.2,0.1-0.3,0.3-0.4,0.4c-0.1,0.2-0.1,0.4,0,0.6s0.2,0.4,0.3,0.6c0.2,0.2,0.4,0.3,0.6,0.4c0.3,0.1,0.6,0.2,1,0.3
						c0.4,0.1,0.8,0.2,1.3,0.3c0.9,0.2,1.8,0.5,2.6,0.7c0.8,0.3,1.5,0.6,2.2,1c0.6,0.4,1.2,0.9,1.6,1.5c0.4,0.6,0.7,1.3,0.9,2.2
						c0.2,0.8,0.2,1.5,0.1,2.2c-0.1,0.7-0.4,1.3-0.8,1.8c-0.4,0.5-0.9,1-1.5,1.4c-0.6,0.4-1.3,0.7-2,0.9l0.4,1.8
						c0.1,0.4-0.1,0.6-0.5,0.6l-2.3,0.2c-0.4,0-0.6-0.1-0.7-0.5l-0.4-1.8c-0.7-0.1-1.4-0.2-2-0.5c-0.7-0.2-1.3-0.5-2-0.9
						c-0.4-0.2-0.7-0.4-1-0.6c-0.3-0.2-0.5-0.4-0.7-0.5l0,0c0,0,0,0,0,0c0,0,0,0,0,0c0,0,0,0,0,0c0,0,0,0,0,0
						c-0.2-0.2-0.4-0.3-0.4-0.5c0-0.1,0-0.3,0.2-0.5l1.7-2.2c0.1-0.1,0.3-0.2,0.4-0.2c0.1,0,0.2,0,0.3,0.1
						C335.2,232.1,335.3,232.2,335.5,232.3z"/>
				</g>
			</g>
		</g>
		<g>
			<g>
				<path class="st18" d="M364.7,288c1.1,10.4-6.6,18.7-17.1,18.4c-10.6-0.3-20-8.9-21.1-19.3c-1.1-10.4,6.6-18.7,17.1-18.4
					C354.1,268.9,363.6,277.6,364.7,288z"/>
				<path class="st0" d="M366.9,286.8c1.1,10.4-6.6,18.7-17.1,18.4c-10.6-0.3-20-8.9-21.1-19.3c-1.1-10.4,6.6-18.7,17.1-18.4
					C356.3,267.7,365.8,276.4,366.9,286.8z"/>
				<g>
					<path class="st14" d="M348,296.4c-0.6,0-1.3-0.3-1.8-0.8l-8.1-7.8c-1-1-1.1-2.5-0.3-3.3c0.9-0.9,2.4-0.8,3.4,0.2l4.5,4.4
						c0.7-4.2,2.7-10,8.2-12.3c1.2-0.5,2.6,0.1,3.3,1.3c0.6,1.2,0.2,2.6-0.9,3.1c-6.3,2.7-6.1,13.1-6.1,13.2c0,0.9-0.5,1.7-1.4,2
						C348.5,296.3,348.2,296.4,348,296.4z"/>
				</g>
			</g>
		</g>
	</g>
</g>
</svg>
