<?xml version="1.0" encoding="utf-8"?>
<!-- Generator: Adobe Illustrator 21.0.0, SVG Export Plug-In . SVG Version: 6.00 Build 0)  -->
<svg version="1.1" id="Camada_1" xmlns="http://www.w3.org/2000/svg" xmlns:xlink="http://www.w3.org/1999/xlink" x="0px" y="0px"
	 viewBox="0 0 446 56.8" style="enable-background:new 0 0 446 56.8;" xml:space="preserve">
<style type="text/css">
	.st0{fill:#29F85A;}
	.st1{fill:#3B3B3B;}
</style>
<g>
	<path class="st0" d="M45,42.9c-1.4,1.2-2.9,2.1-4.5,2.8c-1.6,0.7-3.4,1-5.4,1c-2.1,0-4.1-0.4-6-1.2c-1.9-0.8-3.5-1.9-5-3.3
		c-1.4-1.4-2.6-3-3.4-4.9c-0.8-1.9-1.3-3.9-1.3-6c0-1.4,0.2-2.7,0.5-4c0.3-1.3,0.8-2.5,1.5-3.6c0.6-1.1,1.4-2.2,2.3-3.1
		c0.9-0.9,1.9-1.8,3-2.4c1.1-0.7,2.3-1.2,3.6-1.6c1.3-0.4,2.7-0.6,4.1-0.6c1.2,0,2.4,0.1,3.5,0.4c1.2,0.3,2.3,0.7,3.3,1.2
		c1,0.5,2,1.2,2.9,1.9c0.9,0.8,1.7,1.6,2.4,2.6c0.9,1.3,1.6,2.7,2.1,4.2c0.4,1.5,0.7,3.2,0.7,5c0,0.5,0,0.8-0.1,1.1
		c0,0.3-0.1,0.6-0.3,0.7c-0.2,0.2-0.4,0.3-0.7,0.4c-0.3,0.1-0.7,0.1-1.3,0.1H26.3c0.2,1.1,0.6,2.1,1.2,3c0.6,0.9,1.2,1.6,2,2.2
		c0.8,0.6,1.6,1.1,2.6,1.4c0.9,0.3,1.8,0.5,2.8,0.5c0.7,0,1.4-0.1,2-0.2c0.6-0.1,1.3-0.3,1.8-0.6c0.6-0.2,1.1-0.5,1.6-0.8
		c0.5-0.3,0.9-0.6,1.3-0.9c0,0,0,0,0,0c0.2-0.2,0.4-0.3,0.5-0.4c0.2-0.1,0.4-0.2,0.5-0.2c0.1,0,0.3,0,0.5,0.1
		c0.2,0.1,0.4,0.3,0.5,0.5c0.4,0.5,0.8,0.9,1.1,1.3c0.3,0.3,0.5,0.6,0.7,0.9c0.2,0.2,0.3,0.4,0.4,0.6c0.1,0.2,0.1,0.3,0.1,0.5
		C45.9,42,45.6,42.4,45,42.9z M34.6,21.7c-0.9,0-1.8,0.2-2.7,0.5c-0.9,0.3-1.7,0.8-2.4,1.4c-0.7,0.6-1.4,1.3-1.9,2
		c-0.5,0.8-0.9,1.6-1.2,2.5h16.6c-0.3-1-0.6-1.8-1.1-2.6c-0.5-0.8-1.1-1.5-1.8-2c-0.7-0.6-1.5-1-2.5-1.3
		C36.7,21.9,35.7,21.7,34.6,21.7z"/>
	<path class="st0" d="M75,38.4c0.3-0.2,0.5-0.3,0.7-0.3c0.2,0,0.3-0.1,0.5-0.1c0.3,0,0.5,0.2,0.7,0.4l0.6,0.8l1.7,2.4
		c0.1,0.1,0.1,0.2,0.2,0.3c0,0.1,0.1,0.2,0.1,0.3c0,0.3-0.1,0.5-0.3,0.7c-0.2,0.2-0.4,0.4-0.7,0.6c-1.3,1-2.8,1.7-4.3,2.3
		c-1.5,0.6-3.2,0.9-5.1,0.9c-1.4,0-2.7-0.2-4-0.6c-1.3-0.4-2.5-0.9-3.7-1.5c-1.1-0.7-2.2-1.5-3.1-2.4c-0.9-0.9-1.7-2-2.4-3.1
		c-0.7-1.1-1.2-2.4-1.6-3.7c-0.4-1.3-0.6-2.7-0.6-4.1c0-1.4,0.2-2.8,0.6-4.1c0.4-1.3,0.9-2.5,1.6-3.7c0.7-1.1,1.5-2.2,2.4-3.1
		c0.9-0.9,2-1.7,3.1-2.4c1.1-0.7,2.4-1.2,3.7-1.5c1.3-0.4,2.7-0.6,4-0.6c1.7,0,3.4,0.3,4.9,0.8c1.5,0.5,2.9,1.3,4.1,2.2l0,0
		c0.2,0.2,0.4,0.4,0.6,0.6c0.2,0.2,0.3,0.4,0.3,0.8c0,0.1,0,0.2,0,0.3c0,0.1-0.1,0.2-0.1,0.4l-1.9,2.9c-0.3,0.5-0.7,0.7-1,0.7
		c-0.3,0-0.6-0.1-0.9-0.4c-0.8-0.7-1.7-1.2-2.8-1.6c-1.1-0.4-2.2-0.6-3.3-0.6c-1.2,0-2.4,0.3-3.4,0.8c-1.1,0.5-2,1.2-2.8,2.1
		c-0.8,0.9-1.5,1.9-1.9,3s-0.7,2.4-0.7,3.6c0,1.3,0.2,2.5,0.7,3.7c0.5,1.1,1.1,2.1,1.9,3c0.8,0.8,1.7,1.5,2.8,2
		c1.1,0.5,2.2,0.7,3.4,0.7c1.3,0,2.5-0.2,3.4-0.7C73.4,39.5,74.2,39,75,38.4z"/>
	<path class="st0" d="M83.2,31.3c0-1.4,0.2-2.8,0.6-4.1c0.4-1.3,0.9-2.6,1.6-3.7c0.7-1.1,1.5-2.2,2.4-3.1c0.9-0.9,2-1.7,3.1-2.4
		c1.1-0.7,2.4-1.2,3.7-1.5c1.3-0.4,2.7-0.6,4.1-0.6c1.4,0,2.8,0.2,4.1,0.6c1.3,0.4,2.5,0.9,3.7,1.5c1.1,0.7,2.2,1.5,3.1,2.4
		c0.9,0.9,1.7,2,2.4,3.1c0.7,1.1,1.2,2.4,1.6,3.7c0.4,1.3,0.6,2.7,0.6,4.1c0,1.4-0.2,2.8-0.6,4.1c-0.4,1.3-0.9,2.5-1.6,3.7
		c-0.7,1.1-1.5,2.2-2.4,3.1s-2,1.7-3.1,2.4c-1.1,0.7-2.4,1.2-3.7,1.5c-1.3,0.4-2.7,0.6-4.1,0.6c-1.4,0-2.8-0.2-4.1-0.6
		c-1.3-0.4-2.5-0.9-3.7-1.5c-1.1-0.7-2.2-1.5-3.1-2.4c-0.9-0.9-1.7-2-2.4-3.1c-0.7-1.1-1.2-2.4-1.6-3.7
		C83.4,34.1,83.2,32.7,83.2,31.3z M89.8,31.3c0,1.3,0.2,2.4,0.7,3.6c0.4,1.1,1,2.1,1.8,2.9c0.8,0.8,1.7,1.5,2.8,2
		c1.1,0.5,2.2,0.7,3.5,0.7c1.2,0,2.4-0.2,3.4-0.7c1.1-0.5,2-1.1,2.7-2c0.8-0.8,1.4-1.8,1.8-2.9c0.4-1.1,0.6-2.3,0.6-3.6
		c0-1.2-0.2-2.4-0.6-3.5c-0.4-1.1-1-2.1-1.8-3c-0.8-0.9-1.7-1.5-2.7-2c-1.1-0.5-2.2-0.8-3.4-0.8c-1.3,0-2.4,0.3-3.5,0.8
		c-1.1,0.5-2,1.2-2.8,2c-0.8,0.9-1.4,1.8-1.8,3C90,28.9,89.8,30.1,89.8,31.3z"/>
	<path class="st0" d="M119.6,17.1c0.2-0.2,0.4-0.4,0.5-0.5c0.1-0.1,0.3-0.2,0.6-0.2c0.2,0,0.5,0,0.7,0h2.4c0.5,0,0.8,0.1,1,0.4
		c0.2,0.3,0.4,0.6,0.4,1l0.3,2.5c0.4-0.5,0.8-1.1,1.3-1.6c0.5-0.5,1.1-1,1.9-1.4c0.7-0.4,1.5-0.7,2.5-1c0.9-0.2,2-0.4,3.1-0.4
		c1.8,0,3.5,0.3,4.9,1c1.4,0.7,2.6,1.6,3.6,2.7c1,1.2,1.7,2.5,2.2,4.1c0.5,1.6,0.8,3.2,0.8,5v15.6c0,0.6-0.1,1-0.4,1.3
		c-0.3,0.3-0.6,0.4-1.1,0.4h-3.6c-0.6,0-1-0.1-1.3-0.4c-0.2-0.2-0.3-0.6-0.3-1.2V29c0-0.8-0.1-1.6-0.4-2.4c-0.3-0.8-0.7-1.5-1.2-2.1
		c-0.5-0.6-1.2-1.1-2-1.5c-0.8-0.4-1.7-0.6-2.8-0.6c-0.7,0-1.5,0.1-2.2,0.4c-0.8,0.3-1.5,0.7-2.1,1.2c-0.6,0.5-1.2,1.2-1.6,1.9
		c-0.4,0.8-0.6,1.6-0.7,2.6v15.2c0,0.3,0,0.6,0,0.9c0,0.3-0.1,0.6-0.2,0.8c-0.1,0.2-0.2,0.4-0.4,0.6c-0.2,0.1-0.4,0.2-0.7,0.2h-3.9
		c-0.5,0-0.9-0.1-1.1-0.4c-0.2-0.2-0.4-0.6-0.4-1v-27C119.3,17.6,119.4,17.3,119.6,17.1z"/>
	<path class="st0" d="M150.1,31.3c0-1.4,0.2-2.8,0.6-4.1c0.4-1.3,0.9-2.6,1.6-3.7c0.7-1.1,1.5-2.2,2.4-3.1c0.9-0.9,2-1.7,3.1-2.4
		c1.1-0.7,2.4-1.2,3.7-1.5c1.3-0.4,2.7-0.6,4.1-0.6c1.4,0,2.8,0.2,4.1,0.6c1.3,0.4,2.5,0.9,3.7,1.5c1.1,0.7,2.2,1.5,3.1,2.4
		c0.9,0.9,1.7,2,2.4,3.1c0.7,1.1,1.2,2.4,1.6,3.7c0.4,1.3,0.6,2.7,0.6,4.1c0,1.4-0.2,2.8-0.6,4.1c-0.4,1.3-0.9,2.5-1.6,3.7
		c-0.7,1.1-1.5,2.2-2.4,3.1s-2,1.7-3.1,2.4c-1.1,0.7-2.4,1.2-3.7,1.5c-1.3,0.4-2.7,0.6-4.1,0.6c-1.4,0-2.8-0.2-4.1-0.6
		c-1.3-0.4-2.5-0.9-3.7-1.5c-1.1-0.7-2.2-1.5-3.1-2.4c-0.9-0.9-1.7-2-2.4-3.1c-0.7-1.1-1.2-2.4-1.6-3.7
		C150.3,34.1,150.1,32.7,150.1,31.3z M156.7,31.3c0,1.3,0.2,2.4,0.7,3.6c0.4,1.1,1,2.1,1.8,2.9c0.8,0.8,1.7,1.5,2.8,2
		c1.1,0.5,2.2,0.7,3.5,0.7c1.2,0,2.4-0.2,3.4-0.7c1.1-0.5,2-1.1,2.7-2c0.8-0.8,1.4-1.8,1.8-2.9c0.4-1.1,0.6-2.3,0.6-3.6
		c0-1.2-0.2-2.4-0.6-3.5c-0.4-1.1-1-2.1-1.8-3c-0.8-0.9-1.7-1.5-2.7-2c-1.1-0.5-2.2-0.8-3.4-0.8c-1.3,0-2.4,0.3-3.5,0.8
		c-1.1,0.5-2,1.2-2.8,2c-0.8,0.9-1.4,1.8-1.8,3C156.9,28.9,156.7,30.1,156.7,31.3z"/>
	<path class="st0" d="M186.8,16.7c0.4-0.2,0.9-0.3,1.5-0.3h2.4c0.5,0,0.8,0.1,1,0.4c0.2,0.3,0.4,0.6,0.4,1l0.3,2.3
		c0.4-0.5,0.8-1,1.2-1.5c0.5-0.5,1-0.9,1.7-1.3c0.6-0.4,1.4-0.7,2.3-0.9c0.9-0.2,1.9-0.3,3-0.3c1.1,0,2.1,0.1,3,0.3
		c0.9,0.2,1.7,0.5,2.4,0.9c0.7,0.4,1.4,0.9,1.9,1.5c0.6,0.6,1.1,1.3,1.6,2.1c0.4-0.7,0.9-1.4,1.5-2c0.6-0.6,1.4-1.1,2.2-1.6
		c0.8-0.4,1.8-0.8,2.8-1c1-0.2,2-0.4,3.1-0.4c1.8,0,3.5,0.3,4.9,1c1.4,0.7,2.6,1.6,3.5,2.8c0.9,1.2,1.6,2.5,2.1,4.1
		c0.5,1.6,0.7,3.2,0.7,5v15.6c0,0.6-0.1,1-0.4,1.3c-0.3,0.3-0.6,0.4-1.1,0.4h-3.6c-0.6,0-1-0.1-1.3-0.4c-0.2-0.2-0.3-0.6-0.3-1.2
		V28.8c0-0.8-0.1-1.6-0.4-2.4c-0.2-0.8-0.6-1.5-1.1-2.1c-0.5-0.6-1.1-1.1-1.9-1.5c-0.7-0.4-1.6-0.6-2.7-0.6c-0.9,0-1.7,0.2-2.4,0.5
		c-0.7,0.3-1.4,0.7-1.9,1.3c-0.5,0.6-0.9,1.3-1.3,2.1c-0.3,0.8-0.5,1.7-0.5,2.7v15.6c0,1.1-0.5,1.7-1.5,1.7h-3.6
		c-0.6,0-1-0.1-1.2-0.4c-0.2-0.2-0.3-0.6-0.3-1.2V28.9c0-0.8-0.1-1.6-0.3-2.4c-0.2-0.8-0.6-1.5-1.1-2.1c-0.5-0.6-1.1-1.1-1.8-1.5
		c-0.7-0.4-1.6-0.6-2.7-0.6c-0.7,0-1.4,0.1-2.2,0.4c-0.7,0.3-1.4,0.7-2,1.2c-0.6,0.5-1.1,1.1-1.4,1.9c-0.4,0.7-0.6,1.6-0.6,2.6v16.4
		c0,0.4-0.1,0.7-0.4,1c-0.3,0.3-0.6,0.4-1,0.4h-3.9c-0.5,0-0.9-0.1-1.1-0.4c-0.2-0.2-0.4-0.6-0.4-1v-27
		C186.2,17.3,186.4,16.9,186.8,16.7z"/>
	<path class="st0" d="M236.5,7.5c0-0.9,0.5-1.4,1.4-1.4h3.9c0.4,0,0.8,0.1,1.1,0.4c0.3,0.2,0.4,0.6,0.4,1.1V11c0,0.4-0.1,0.7-0.4,1
		c-0.3,0.3-0.6,0.5-1.1,0.5h-3.9c-0.9,0-1.4-0.5-1.4-1.5V7.5z M236.5,17.8c0-0.4,0.1-0.7,0.4-1c0.2-0.3,0.6-0.4,1-0.4h3.9
		c0.2,0,0.3,0,0.5,0.1c0.2,0.1,0.3,0.2,0.5,0.3c0.1,0.1,0.3,0.3,0.4,0.5c0.1,0.2,0.1,0.4,0.1,0.6v26.9c0,0.9-0.5,1.4-1.5,1.4h-3.9
		c-0.9,0-1.4-0.5-1.4-1.4V17.8z"/>
	<path class="st0" d="M250,17.9c0-0.5,0.1-0.8,0.4-1.1c0.3-0.3,0.7-0.4,1.1-0.4h21.2c0.4,0,0.8,0.1,1.1,0.3c0.3,0.2,0.5,0.6,0.5,1.1
		v3c0,0.3,0,0.6-0.1,0.8c-0.1,0.2-0.2,0.4-0.4,0.7c-2.6,3-5.2,6-7.8,9c-2.6,3-5.2,6-7.8,9h14.7c0.5,0,0.8,0.1,1.1,0.4
		c0.3,0.2,0.4,0.6,0.4,1.2v2.7c0,0.4-0.1,0.8-0.4,1.1c-0.3,0.4-0.7,0.5-1.1,0.5h-21.7c-0.4,0-0.8-0.2-1.1-0.5
		c-0.3-0.3-0.5-0.7-0.5-1.1v-2.4c0-0.2,0-0.3,0.1-0.5c0-0.2,0.1-0.3,0.2-0.5c0.7-0.8,1.5-1.7,2.4-2.7c0.9-1,1.8-2.1,2.8-3.2
		c1-1.1,2-2.3,3-3.5c1-1.2,2.1-2.3,3-3.5c1-1.1,1.9-2.2,2.8-3.2c0.9-1,1.7-1.9,2.4-2.7h-14.8c-0.5,0-0.9-0.1-1.1-0.4
		c-0.3-0.3-0.4-0.7-0.4-1.2V17.9z"/>
	<path class="st0" d="M278.7,17.9c0-0.5,0.1-0.8,0.4-1.1c0.3-0.3,0.7-0.4,1.1-0.4h21.2c0.4,0,0.8,0.1,1.1,0.3
		c0.3,0.2,0.5,0.6,0.5,1.1v3c0,0.3,0,0.6-0.1,0.8c-0.1,0.2-0.2,0.4-0.4,0.7c-2.6,3-5.2,6-7.8,9c-2.6,3-5.2,6-7.8,9h14.7
		c0.5,0,0.8,0.1,1.1,0.4c0.3,0.2,0.4,0.6,0.4,1.2v2.7c0,0.4-0.1,0.8-0.4,1.1c-0.3,0.4-0.7,0.5-1.1,0.5h-21.7c-0.4,0-0.8-0.2-1.1-0.5
		c-0.3-0.3-0.5-0.7-0.5-1.1v-2.4c0-0.2,0-0.3,0.1-0.5c0-0.2,0.1-0.3,0.2-0.5c0.7-0.8,1.5-1.7,2.4-2.7c0.9-1,1.8-2.1,2.8-3.2
		s2-2.3,3-3.5c1-1.2,2.1-2.3,3-3.5c1-1.1,1.9-2.2,2.8-3.2c0.9-1,1.7-1.9,2.4-2.7h-14.8c-0.5,0-0.9-0.1-1.1-0.4
		c-0.3-0.3-0.4-0.7-0.4-1.2V17.9z"/>
	<path class="st0" d="M332.7,42.9c-1.4,1.2-2.9,2.1-4.5,2.8c-1.6,0.7-3.4,1-5.4,1c-2.1,0-4.1-0.4-6-1.2c-1.9-0.8-3.5-1.9-5-3.3
		c-1.4-1.4-2.6-3-3.4-4.9c-0.8-1.9-1.3-3.9-1.3-6c0-1.4,0.2-2.7,0.5-4c0.3-1.3,0.8-2.5,1.5-3.6c0.6-1.1,1.4-2.2,2.3-3.1
		c0.9-0.9,1.9-1.8,3-2.4c1.1-0.7,2.3-1.2,3.6-1.6c1.3-0.4,2.7-0.6,4.1-0.6c1.2,0,2.4,0.1,3.5,0.4c1.2,0.3,2.3,0.7,3.3,1.2
		c1,0.5,2,1.2,2.9,1.9c0.9,0.8,1.7,1.6,2.4,2.6c0.9,1.3,1.6,2.7,2.1,4.2c0.4,1.5,0.7,3.2,0.7,5c0,0.5,0,0.8-0.1,1.1
		c0,0.3-0.1,0.6-0.3,0.7c-0.2,0.2-0.4,0.3-0.7,0.4c-0.3,0.1-0.7,0.1-1.3,0.1H314c0.2,1.1,0.6,2.1,1.2,3c0.6,0.9,1.2,1.6,2,2.2
		c0.8,0.6,1.6,1.1,2.6,1.4c0.9,0.3,1.8,0.5,2.8,0.5c0.7,0,1.4-0.1,2-0.2c0.6-0.1,1.3-0.3,1.8-0.6c0.6-0.2,1.1-0.5,1.6-0.8
		c0.5-0.3,0.9-0.6,1.3-0.9c0,0,0,0,0,0c0.2-0.2,0.4-0.3,0.5-0.4s0.4-0.2,0.5-0.2c0.1,0,0.3,0,0.5,0.1c0.2,0.1,0.4,0.3,0.5,0.5
		c0.4,0.5,0.8,0.9,1.1,1.3c0.3,0.3,0.5,0.6,0.7,0.9c0.2,0.2,0.3,0.4,0.4,0.6c0.1,0.2,0.1,0.3,0.1,0.5
		C333.6,42,333.3,42.4,332.7,42.9z M322.3,21.7c-0.9,0-1.8,0.2-2.7,0.5c-0.9,0.3-1.7,0.8-2.4,1.4c-0.7,0.6-1.4,1.3-1.9,2
		c-0.5,0.8-0.9,1.6-1.2,2.5h16.6c-0.3-1-0.6-1.8-1.1-2.6c-0.5-0.8-1.1-1.5-1.8-2c-0.7-0.6-1.5-1-2.5-1.3
		C324.3,21.9,323.4,21.7,322.3,21.7z"/>
	<path class="st1" d="M342.9,41.6c0-0.4,0.1-0.8,0.2-1.1s0.4-0.5,0.9-0.5h3.7c0.2,0,0.4,0,0.6,0c0.2,0,0.4,0.1,0.5,0.1
		c0.2,0.1,0.3,0.2,0.4,0.3c0.1,0.1,0.2,0.3,0.2,0.6v3.5c0,0.2,0,0.4,0,0.6s-0.1,0.4-0.1,0.5c-0.1,0.2-0.2,0.3-0.3,0.4
		c-0.1,0.1-0.3,0.1-0.6,0.1h-3.7c-0.5,0-1-0.1-1.2-0.2c-0.3-0.1-0.4-0.4-0.4-0.9V41.6z"/>
	<path class="st1" d="M356.2,16.8c0.2-0.2,0.4-0.3,0.6-0.3c0.2,0,0.4-0.1,0.6-0.1h3.5c0.3,0,0.5,0.1,0.7,0.2
		c0.2,0.1,0.4,0.2,0.5,0.4c0.1,0.2,0.3,0.4,0.3,0.6c0.1,0.2,0.2,0.4,0.2,0.7l0.5,2.1c0.2-0.5,0.6-1,1-1.5c0.4-0.5,1-1,1.7-1.4
		c0.7-0.4,1.5-0.8,2.4-1c0.9-0.3,2-0.4,3.3-0.4c1,0,1.9,0.1,2.7,0.3c0.8,0.2,1.5,0.5,2.2,0.9c0.7,0.4,1.3,0.8,1.8,1.4
		c0.5,0.6,1.1,1.2,1.5,1.9c0.3-0.5,0.7-1,1.3-1.5c0.6-0.5,1.3-1,2.1-1.4c0.8-0.4,1.7-0.8,2.7-1.1c1-0.3,2.1-0.4,3.2-0.4
		c1.8,0,3.3,0.3,4.7,1c1.3,0.7,2.4,1.6,3.3,2.8c0.9,1.2,1.5,2.6,2,4.2c0.4,1.6,0.7,3.3,0.7,5.1v15.3c0,0.6-0.1,1-0.4,1.3
		c-0.3,0.3-0.7,0.5-1.2,0.5h-5.4c-0.7,0-1.1-0.1-1.4-0.3c-0.3-0.2-0.4-0.7-0.4-1.3V29c0-0.7-0.1-1.3-0.3-1.9
		c-0.2-0.6-0.5-1.1-0.9-1.5c-0.4-0.4-0.8-0.8-1.4-1c-0.5-0.2-1.1-0.4-1.8-0.4c-0.6,0-1.2,0.1-1.7,0.4c-0.5,0.2-1,0.6-1.4,1
		c-0.4,0.4-0.7,0.9-1,1.5c-0.2,0.6-0.4,1.2-0.4,1.9v15.3c0,0.6-0.1,1-0.4,1.3c-0.3,0.3-0.7,0.5-1.2,0.5h-0.5H380h-4.7
		c-0.7,0-1.1-0.1-1.4-0.3c-0.3-0.2-0.4-0.7-0.4-1.3V29c0-0.7-0.1-1.3-0.3-1.9c-0.2-0.6-0.5-1.1-0.8-1.5c-0.4-0.4-0.8-0.8-1.3-1
		s-1.1-0.4-1.8-0.4c-0.6,0-1.1,0.1-1.7,0.3c-0.5,0.2-1,0.5-1.5,1c-0.4,0.4-0.8,0.9-1.1,1.5c-0.3,0.6-0.5,1.2-0.5,1.9v15.5
		c0,0.3-0.1,0.5-0.2,0.8c-0.1,0.3-0.3,0.5-0.5,0.6c-0.2,0.1-0.4,0.2-0.6,0.3c-0.2,0-0.4,0.1-0.6,0.1h-5.3c-0.7,0-1.2-0.2-1.5-0.5
		c-0.3-0.3-0.4-0.8-0.4-1.3V18.2c0-0.3,0.1-0.6,0.2-0.8c0.1-0.2,0.3-0.4,0.6-0.6L356.2,16.8z"/>
	<path class="st1" d="M430.4,42.6c-1.4,1.3-2.9,2.3-4.6,3c-1.7,0.7-3.5,1.1-5.5,1.1c-2.1,0-4.2-0.4-6.1-1.2c-1.9-0.8-3.6-1.9-5-3.2
		c-1.4-1.4-2.6-3-3.4-4.9c-0.8-1.9-1.3-3.9-1.3-6.1c0-1.4,0.2-2.7,0.5-4c0.3-1.3,0.8-2.5,1.4-3.6c0.6-1.1,1.4-2.2,2.2-3.1
		c0.9-0.9,1.9-1.8,3-2.4c1.1-0.7,2.3-1.2,3.6-1.6c1.3-0.4,2.6-0.6,4.1-0.6c1.3,0,2.6,0.2,3.8,0.5c1.2,0.3,2.4,0.8,3.4,1.5
		c1.1,0.6,2.1,1.4,2.9,2.2c0.9,0.9,1.7,1.8,2.3,2.9c0.6,1,1.1,2.1,1.5,3.3c0.4,1.2,0.5,2.4,0.5,3.6c0,0.8,0,1.5,0,2
		c0,0.5-0.1,0.9-0.4,1.2c-0.2,0.3-0.6,0.5-1.1,0.6c-0.5,0.1-1.3,0.2-2.2,0.2h-16.9c0.2,1,0.5,1.8,0.9,2.5c0.5,0.7,1,1.2,1.7,1.6
		c0.6,0.4,1.3,0.7,2,0.9c0.7,0.2,1.4,0.3,2,0.3c0.6,0,1.1-0.1,1.7-0.2c0.6-0.1,1.2-0.3,1.7-0.5c0.6-0.2,1.1-0.4,1.5-0.7
		c0.5-0.3,0.8-0.5,1.1-0.8c0.2-0.2,0.5-0.4,0.6-0.5c0.2-0.1,0.4-0.2,0.6-0.2c0.2,0,0.4,0.1,0.6,0.2c0.2,0.1,0.4,0.3,0.7,0.6l2.5,2.8
		c0.2,0.2,0.3,0.4,0.3,0.6c0,0.2,0.1,0.3,0.1,0.5c0,0.3-0.1,0.6-0.3,0.8C430.9,42.2,430.7,42.4,430.4,42.6z M419.2,23.1
		c-0.6,0-1.2,0.1-1.8,0.4c-0.6,0.2-1.1,0.6-1.6,1c-0.5,0.4-0.9,0.9-1.3,1.4c-0.4,0.5-0.7,1-1,1.6h12c-0.3-0.6-0.7-1.2-1.1-1.7
		c-0.4-0.5-0.8-1-1.3-1.4c-0.5-0.4-1.1-0.7-1.7-0.9C420.7,23.2,420,23.1,419.2,23.1z"/>
</g>
</svg>
